# Blender 4.1.1
# www.blender.org
mtllib triprism.mtl
o Cone
v 0.000000 -1.000000 -1.000000
v 0.866025 -1.000000 0.500000
v -0.866025 -1.000000 0.500000
v 0.000000 1.000000 -0.000000
vn 0.8402 0.2425 -0.4851
vn -0.0000 -1.0000 -0.0000
vn -0.0000 0.2425 0.9701
vn -0.8402 0.2425 -0.4851
vt 0.387554 0.999824
vt 0.597448 0.500176
vt 0.807342 0.999824
vt 0.000176 0.542473
vt 0.363723 0.752367
vt 0.000176 0.962260
vt 0.807342 0.000176
vt 0.597448 0.499824
vt 0.387554 0.000177
vt 0.387201 0.000176
vt 0.387201 0.542120
vt 0.000176 0.162759
s 0
usemtl Material.001
f 1/1/1 4/2/1 2/3/1
f 1/4/2 2/5/2 3/6/2
f 2/7/3 4/8/3 3/9/3
f 3/10/4 4/11/4 1/12/4
